<?xml version="1.0" encoding="UTF-8"?>
<svg id="Layer_1" data-name="Layer 1" xmlns="http://www.w3.org/2000/svg" viewBox="0 0 1080 562.79">
  <defs>
    <style>
      .cls-1 {
        fill: #d6ae32;
      }
    </style>
  </defs>
  <g>
    <path class="cls-1" d="M76.15,348.92h-36.14v173.87h136.53l-100.39-173.87ZM57.25,496.04l19.83-19.86-19.83-19.83,9.5-9.5,29.34,29.34-29.34,29.36-9.5-9.5ZM95.15,505.54v-13.44h34.79v13.44h-34.79Z"/>
    <polygon class="cls-1" points="269.45 40 243.76 115.58 65.69 115.58 40 40 98.39 40 98.39 60.83 132.6 60.83 132.6 40 176.85 40 176.85 60.83 211.04 60.83 211.04 40 269.45 40"/>
    <path class="cls-1" d="M243.18,373.52l86.16,149.27h-97.63l-84.27-145.97-43.63-75.57h112.17c20.87,0,37.79-16.92,37.79-37.8,0-10.43-4.23-19.89-11.07-26.71-6.83-6.85-16.28-11.07-26.71-11.07H40v-75.57h175.98c62.6,0,113.36,50.76,113.36,113.36v.02c0,53.22-36.68,97.89-86.16,110.07Z"/>
  </g>
  <g>
    <path class="cls-1" d="M410.43,263.82h16.6l21.73,43.46h33.38l-25.8-48.44c6.94-3.3,12.34-8.12,16.18-14.46,3.85-6.36,5.78-14.12,5.78-23.29s-1.92-16.72-5.78-23.01c-3.85-6.3-9.26-11.06-16.23-14.3-6.97-3.24-15.16-4.86-24.57-4.86h-50.62v128.37h29.34v-43.46ZM443.25,208.62c3.3,3.43,4.95,7.77,4.95,13.02s-1.65,9.54-4.95,12.84c-3.3,3.3-7.64,4.95-13.02,4.95h-19.81v-35.95h19.81c5.38,0,9.72,1.71,13.02,5.13Z"/>
    <path class="cls-1" d="M527.06,254.47c-7.95,0-14.7,1.19-20.27,3.58-5.56,2.38-9.78,5.66-12.65,9.81-2.87,4.16-4.31,8.99-4.31,14.49,0,7.82,3.03,14.24,9.08,19.26,6.05,5.01,14.09,7.52,24.12,7.52s16.99-2.48,21.64-7.43c1.2-1.27,2.23-2.69,3.12-4.23v9.83h24.39c-.25-4.77-.4-9.5-.46-14.21-.06-4.71-.09-9.45-.09-14.21v-29.53c0-7.33-1.71-13.54-5.13-18.61-3.42-5.07-8.1-8.95-14.03-11.64-5.93-2.69-12.81-4.04-20.63-4.04s-15.68,1.38-22.83,4.13c-7.15,2.75-12.74,6.27-16.78,10.55l12.1,18.16c3.54-2.81,7.67-5.04,12.38-6.69,4.71-1.65,9.14-2.48,13.3-2.48s7.46.92,10.27,2.75c2.81,1.83,4.22,5.01,4.22,9.54v6.27c-4.68-1.85-10.49-2.78-17.42-2.78ZM540.82,286.93c-2.57,1.59-5.87,2.38-9.9,2.38s-7.15-.79-9.72-2.38c-2.57-1.59-3.85-3.67-3.85-6.23s1.28-4.46,3.85-6.05c2.57-1.59,5.8-2.38,9.72-2.38s7.34.8,9.9,2.38c2.57,1.59,3.85,3.61,3.85,6.05,0,2.57-1.28,4.65-3.85,6.23Z"/>
    <polygon class="cls-1" points="619.67 284.21 628.6 274.25 646.63 307.28 680.37 307.28 648.3 252.26 680.01 216.87 646.26 216.87 619.67 247.06 619.67 173.41 592.16 173.41 592.16 307.28 619.67 307.28 619.67 284.21"/>
    <path class="cls-1" d="M718.7,258.68c0-4.89,1.74-8.71,5.23-11.46,3.48-2.75,8.53-4.13,15.13-4.13h9.35v-27.14h-6.97c-5.02,0-9.57.89-13.66,2.66-4.1,1.77-7.33,4.86-9.72,9.26-.1.18-.18.38-.28.57v-11.57h-26.59v90.41h27.51v-48.6Z"/>
    <path class="cls-1" d="M781.15,320.4c-.55.3-1.13.46-1.74.46h-21.64v23.11h19.99c5.38,0,9.87-.73,13.48-2.2,3.61-1.47,6.6-3.37,8.99-5.69,2.38-2.32,4.31-4.86,5.78-7.61,1.47-2.75,2.75-5.47,3.85-8.16l40.35-103.43h-30.63l-17.71,57.99-20.43-57.99h-30.63l36.41,92.03-4.87,10.12c-.25.61-.64,1.07-1.19,1.38Z"/>
    <path class="cls-1" d="M907.96,301.69c1.2-1.27,2.23-2.69,3.12-4.23v9.83h24.39c-.25-4.77-.4-9.5-.46-14.21-.06-4.71-.09-9.45-.09-14.21v-29.53c0-7.33-1.71-13.54-5.13-18.61-3.42-5.07-8.1-8.95-14.03-11.64-5.93-2.69-12.81-4.04-20.63-4.04s-15.68,1.38-22.83,4.13c-7.15,2.75-12.75,6.27-16.78,10.55l12.1,18.16c3.54-2.81,7.67-5.04,12.38-6.69,4.71-1.65,9.14-2.48,13.3-2.48s7.46.92,10.27,2.75c2.81,1.83,4.22,5.01,4.22,9.54v6.27c-4.68-1.85-10.49-2.78-17.42-2.78-7.95,0-14.7,1.19-20.27,3.58-5.56,2.38-9.78,5.66-12.65,9.81-2.87,4.16-4.31,8.99-4.31,14.49,0,7.82,3.03,14.24,9.08,19.26,6.05,5.01,14.09,7.52,24.12,7.52s16.99-2.48,21.64-7.43ZM880.63,280.69c0-2.44,1.28-4.46,3.85-6.05,2.57-1.59,5.8-2.38,9.72-2.38s7.34.8,9.9,2.38c2.57,1.59,3.85,3.61,3.85,6.05,0,2.57-1.28,4.65-3.85,6.23-2.57,1.59-5.87,2.38-9.9,2.38s-7.15-.79-9.72-2.38c-2.57-1.59-3.85-3.67-3.85-6.23Z"/>
    <path class="cls-1" d="M1031.01,225.13c-5.99-6.72-14.06-10.09-24.21-10.09-2.57,0-5.47.37-8.71,1.1-3.24.73-6.42,2.05-9.54,3.94-2.36,1.44-4.53,3.36-6.51,5.74v-8.95h-26.59v90.41h27.51v-49.15c0-3.91.67-7.21,2.02-9.9,1.34-2.69,3.21-4.74,5.59-6.14,2.38-1.4,5.1-2.11,8.16-2.11,4.28,0,7.64,1.38,10.09,4.13,2.44,2.75,3.67,7.18,3.67,13.3v49.88h27.51v-54.47c0-11.74-3-20.97-8.99-27.69Z"/>
    <path class="cls-1" d="M462.6,457.41c-4.34,1.9-9.2,2.84-14.58,2.84-7.22,0-13.6-1.59-19.16-4.77-5.56-3.18-9.9-7.58-13.02-13.2-3.12-5.62-4.68-12.1-4.68-19.44v-1.83c0-7.34,1.56-13.81,4.68-19.44,3.12-5.62,7.46-10.02,13.02-13.2,5.56-3.18,11.95-4.77,19.16-4.77,5.13,0,9.81.89,14.03,2.66,4.22,1.77,8.04,4.37,11.46,7.79l18.89-22.01c-5.87-5.5-12.47-9.72-19.81-12.65-7.33-2.94-15.53-4.4-24.57-4.4s-18,1.62-26.13,4.86c-8.13,3.24-15.25,7.79-21.36,13.66-6.12,5.87-10.88,12.84-14.3,20.91-3.42,8.07-5.13,16.93-5.13,26.59v1.83c0,9.66,1.71,18.52,5.13,26.59,3.42,8.07,8.19,15.04,14.3,20.91,6.11,5.87,13.23,10.42,21.36,13.66,8.13,3.24,16.84,4.86,26.13,4.86s17.21-1.59,24.85-4.77c7.64-3.18,14.46-7.58,20.45-13.2l-18.89-22.01c-3.55,3.79-7.49,6.63-11.83,8.53Z"/>
    <path class="cls-1" d="M569.24,399.73c-7.22-3.91-15.35-5.87-24.39-5.87s-17.21,1.96-24.48,5.87c-7.28,3.91-13.02,9.32-17.24,16.23-4.22,6.91-6.33,14.89-6.33,23.93v1.83c0,9.05,2.11,17.06,6.33,24.02,4.22,6.97,9.96,12.41,17.24,16.32,7.27,3.91,15.43,5.87,24.48,5.87s17.18-1.95,24.39-5.87c7.21-3.91,12.93-9.35,17.15-16.32,4.22-6.97,6.33-14.97,6.33-24.02v-1.83c0-9.05-2.11-17.02-6.33-23.93-4.22-6.9-9.93-12.31-17.15-16.23ZM565.21,441.73c0,4.28-.86,8.1-2.57,11.46-1.71,3.37-4.1,5.99-7.15,7.89-3.06,1.9-6.6,2.84-10.64,2.84s-7.58-.95-10.64-2.84c-3.06-1.89-5.47-4.52-7.24-7.89-1.77-3.36-2.66-7.18-2.66-11.46v-1.83c0-4.28.88-8.07,2.66-11.37,1.77-3.3,4.19-5.9,7.24-7.79,3.05-1.89,6.6-2.84,10.64-2.84s7.58.95,10.64,2.84c3.05,1.9,5.44,4.49,7.15,7.79,1.71,3.3,2.57,7.09,2.57,11.37v1.83Z"/>
    <path class="cls-1" d="M670.65,401.93c-2.12-1.7-4.44-3.17-6.97-4.4-5.02-2.44-10.58-3.67-16.69-3.67-7.95,0-15.19,1.93-21.73,5.78-6.54,3.85-11.74,9.26-15.59,16.23-3.85,6.97-5.78,15.04-5.78,24.21v1.83c0,9.29,1.89,17.39,5.69,24.3,3.79,6.91,8.92,12.26,15.4,16.05,6.48,3.79,13.75,5.68,21.82,5.68,6.85,0,12.99-1.5,18.43-4.49,3.07-1.69,5.84-3.81,8.34-6.33v8.99h24.57v-133.87h-27.51v49.7ZM669.74,453.46c-1.83,3.42-4.34,6.02-7.52,7.79-3.18,1.77-6.79,2.66-10.82,2.66-3.55,0-6.85-.85-9.9-2.57-3.06-1.71-5.5-4.22-7.34-7.52-1.83-3.3-2.75-7.27-2.75-11.92v-1.83c0-4.77.92-8.8,2.75-12.1,1.83-3.3,4.28-5.8,7.34-7.52,3.05-1.71,6.36-2.57,9.9-2.57,4.04,0,7.64.89,10.82,2.66,3.18,1.77,5.69,4.37,7.52,7.79,1.83,3.43,2.75,7.64,2.75,12.65s-.92,9.05-2.75,12.47Z"/>
    <polygon class="cls-1" points="712.65 418.8 727.87 418.8 727.87 486.11 755.38 486.11 755.38 395.7 712.65 395.7 712.65 418.8"/>
    <rect class="cls-1" x="726.59" y="352.23" width="30.44" height="27.14"/>
    <path class="cls-1" d="M828,393.86c-2.57,0-5.47.37-8.71,1.1-3.24.73-6.42,2.05-9.54,3.94-2.36,1.44-4.53,3.36-6.51,5.74v-8.95h-26.59v90.41h27.51v-49.15c0-3.91.67-7.21,2.02-9.9,1.35-2.69,3.21-4.74,5.59-6.14,2.38-1.4,5.1-2.11,8.16-2.11,4.28,0,7.64,1.38,10.09,4.13,2.44,2.75,3.67,7.18,3.67,13.3v49.88h27.51v-54.47c0-11.74-3-20.97-8.99-27.69-5.99-6.72-14.06-10.09-24.21-10.09Z"/>
    <path class="cls-1" d="M954.91,476.48c-4.89-4.09-11.13-6.14-18.71-6.14h-26.59c-.12,0-.27-.03-.46-.09-.18-.06-.27-.18-.27-.37s.06-.4.18-.64l3.28-6.64c1.68.14,3.39.22,5.15.22,8.07,0,15.22-1.44,21.46-4.31,6.23-2.87,11.09-6.88,14.58-12.01,3.49-5.13,5.23-11,5.23-17.61v-1.83c0-6.48-1.74-12.22-5.23-17.24-3.22-4.63-7.63-8.31-13.2-11.07l11.82-21.21h-27.69l-7.41,16.33c-7.89.05-14.87,1.45-20.93,4.21-6.17,2.81-11.04,6.73-14.58,11.74-3.55,5.01-5.32,10.76-5.32,17.24v1.83c0,6.6,1.77,12.47,5.32,17.61,2.33,3.38,5.25,6.26,8.72,8.66l-5.42,11.15c-2.08,4.16-2.87,8.19-2.38,12.1.49,3.91,2.14,7.09,4.95,9.54,2.81,2.44,6.54,3.67,11.19,3.67h33.38c1.71,0,2.9.34,3.57,1.01.67.67,1.01,1.8,1.01,3.39,0,1.47-.34,2.54-1.01,3.21-.67.67-1.87,1.01-3.57,1.01h-55.57v22.56h58.5c5.38,0,10.12-1.16,14.21-3.48,4.1-2.32,7.3-5.47,9.63-9.45,2.32-3.97,3.48-8.47,3.48-13.48,0-9.17-2.45-15.8-7.33-19.9ZM907.22,419.17c2.69-2.32,6.11-3.48,10.27-3.48s7.73,1.16,10.36,3.48c2.63,2.32,3.94,5.38,3.94,9.17,0,3.43-.73,6.18-2.2,8.25-1.47,2.08-3.27,3.55-5.41,4.4-2.14.86-4.37,1.28-6.69,1.28-2.2,0-4.4-.43-6.6-1.28-2.2-.85-4.04-2.32-5.5-4.4-1.47-2.08-2.2-4.83-2.2-8.25,0-3.79,1.34-6.84,4.04-9.17Z"/>
  </g>
</svg>